<?xml version="1.0" standalone="no"?>
<!DOCTYPE svg PUBLIC "-//W3C//DTD SVG 20010904//EN"
 "http://www.w3.org/TR/2001/REC-SVG-20010904/DTD/svg10.dtd">
<svg version="1.0" xmlns="http://www.w3.org/2000/svg"
 width="1719.000000pt" height="1719.000000pt" viewBox="0 0 1719.000000 1719.000000"
 preserveAspectRatio="xMidYMid meet">
<metadata>
Created by potrace 1.11, written by Peter Selinger 2001-2013
</metadata>
<g transform="translate(0.000000,1719.000000) scale(0.100000,-0.100000)"
fill="#000000" stroke="none">
<path d="M8427 17184 c-1 -1 -83 -5 -182 -9 -99 -3 -200 -8 -225 -10 -25 -2
-83 -6 -130 -9 -47 -4 -96 -8 -110 -10 -14 -3 -54 -7 -90 -10 -69 -7 -135 -14
-185 -21 -16 -2 -52 -7 -80 -10 -63 -8 -465 -74 -485 -80 -8 -2 -31 -7 -50
-10 -247 -42 -774 -187 -1130 -310 -126 -44 -427 -159 -495 -190 -16 -7 -93
-41 -170 -75 -613 -270 -1292 -682 -1810 -1096 -175 -139 -196 -157 -222 -181
-13 -11 -42 -36 -65 -55 -23 -18 -46 -38 -52 -43 -6 -6 -58 -53 -116 -105
-136 -122 -480 -466 -600 -600 -52 -58 -96 -107 -99 -110 -52 -46 -421 -514
-521 -660 -13 -19 -27 -37 -30 -40 -9 -8 -223 -329 -256 -383 -16 -27 -37 -61
-46 -75 -10 -15 -27 -43 -38 -62 -11 -19 -29 -48 -39 -65 -121 -199 -315 -573
-426 -820 -42 -93 -82 -183 -90 -200 -19 -43 -86 -211 -138 -350 -127 -337
-247 -740 -332 -1119 -36 -161 -39 -179 -51 -251 -3 -22 -8 -43 -9 -46 -2 -3
-7 -28 -11 -55 -3 -27 -8 -52 -10 -55 -1 -3 -6 -32 -9 -65 -4 -32 -8 -61 -10
-64 -2 -3 -9 -44 -15 -90 -6 -47 -13 -98 -16 -115 -6 -31 -8 -47 -18 -150 -4
-33 -9 -76 -11 -95 -5 -45 -16 -152 -20 -211 -17 -218 -20 -335 -20 -684 0
-343 4 -481 20 -675 2 -19 6 -75 10 -125 3 -49 8 -97 10 -105 2 -8 6 -44 10
-80 3 -36 8 -76 10 -90 2 -14 7 -44 10 -67 3 -24 7 -62 10 -85 5 -38 55 -329
71 -413 180 -953 562 -1948 1071 -2788 98 -161 292 -457 364 -556 27 -36 57
-77 67 -91 29 -41 253 -331 277 -359 13 -14 53 -62 90 -106 69 -82 146 -169
250 -284 163 -180 514 -517 751 -721 270 -233 693 -541 1039 -757 360 -224
828 -465 1225 -630 19 -8 51 -22 70 -30 121 -52 512 -191 698 -247 131 -40
352 -102 392 -111 8 -2 56 -13 105 -25 50 -12 97 -24 105 -26 55 -13 402 -83
435 -88 22 -4 65 -11 95 -16 30 -5 75 -12 100 -15 25 -3 70 -10 100 -15 30 -5
80 -11 111 -15 31 -3 65 -7 75 -9 11 -2 55 -7 99 -11 44 -3 94 -8 110 -10 17
-3 66 -7 110 -10 44 -3 107 -8 140 -10 196 -15 746 -21 925 -10 277 17 290 18
430 30 90 8 183 18 280 30 25 4 61 8 80 11 19 2 49 6 65 9 17 3 48 7 70 10 22
3 90 14 150 25 61 11 128 22 150 26 22 3 99 19 170 34 72 16 141 31 155 33 14
3 63 15 110 27 47 12 93 23 103 25 66 14 340 93 487 141 492 158 1026 385
1450 616 134 74 176 97 350 202 169 101 562 358 590 386 3 3 77 59 165 125
319 239 566 455 881 769 121 122 249 253 283 291 35 39 78 86 95 105 47 51
236 278 276 330 19 25 37 47 40 50 12 10 140 180 228 302 171 238 383 571 512
803 95 171 129 237 219 420 165 333 317 705 439 1070 33 99 66 200 73 225 7
25 14 50 15 55 42 137 150 565 168 665 2 14 11 59 20 100 15 74 20 99 31 174
4 21 9 48 11 60 6 31 32 195 38 244 6 42 12 89 21 160 2 20 7 64 10 97 3 33 8
71 10 85 8 54 19 218 31 450 13 267 8 773 -11 990 -1 19 -5 73 -9 120 -6 78
-10 124 -21 220 -2 19 -7 60 -10 90 -4 30 -8 66 -10 80 -13 89 -26 179 -29
205 -10 68 -37 233 -46 275 -5 25 -12 56 -14 70 -2 14 -12 61 -21 105 -9 44
-19 89 -21 100 -9 50 -98 400 -125 495 -255 882 -624 1678 -1130 2430 -101
151 -170 251 -179 260 -3 3 -51 66 -107 140 -115 154 -283 360 -381 470 -37
41 -91 101 -121 135 -128 144 -449 461 -616 610 -120 107 -120 108 -165 144
-24 19 -48 40 -54 46 -6 6 -67 56 -136 111 -882 706 -1901 1238 -2960 1544
-122 35 -308 86 -352 96 -10 2 -26 6 -35 8 -243 57 -467 102 -653 131 -19 3
-46 7 -60 10 -14 3 -47 7 -75 10 -27 4 -57 8 -65 10 -8 2 -46 7 -85 11 -38 3
-72 8 -75 9 -3 2 -46 6 -95 10 -50 4 -99 9 -110 11 -11 2 -56 6 -100 9 -44 4
-102 8 -130 10 -126 10 -739 26 -748 19z m543 -128 c85 -4 173 -9 195 -11 22
-3 74 -7 115 -10 81 -5 136 -10 275 -26 172 -19 225 -27 400 -55 128 -21 310
-54 380 -70 11 -2 33 -7 49 -10 16 -2 32 -6 35 -8 3 -2 22 -7 41 -10 68 -11
357 -86 541 -140 552 -163 1133 -403 1613 -665 71 -39 130 -71 132 -71 11 0
451 -271 544 -335 25 -17 90 -62 145 -100 213 -147 561 -419 743 -582 42 -37
100 -88 128 -113 109 -95 527 -522 660 -675 811 -931 1395 -1986 1744 -3150
48 -160 142 -520 155 -593 3 -19 14 -71 24 -115 11 -45 22 -95 24 -112 3 -16
12 -73 22 -125 9 -52 18 -106 20 -120 10 -62 14 -88 19 -125 4 -22 8 -51 11
-65 2 -14 7 -47 10 -75 3 -27 8 -68 10 -90 5 -36 9 -75 19 -170 2 -16 7 -75
11 -130 4 -55 9 -108 10 -117 8 -38 18 -395 19 -593 0 -191 -10 -505 -19 -580
-2 -16 -6 -73 -10 -125 -4 -52 -8 -108 -10 -125 -2 -16 -6 -57 -10 -90 -8 -74
-13 -117 -20 -175 -3 -25 -7 -58 -9 -75 -2 -16 -9 -57 -15 -90 -6 -33 -13 -78
-15 -100 -3 -22 -19 -114 -37 -205 -17 -91 -33 -176 -35 -190 -3 -14 -18 -81
-35 -150 -190 -802 -476 -1545 -852 -2212 -15 -27 -38 -67 -51 -90 -176 -317
-460 -733 -731 -1073 -220 -276 -348 -418 -630 -700 -224 -224 -272 -270 -405
-385 -41 -36 -77 -67 -80 -70 -11 -12 -277 -228 -315 -256 -22 -16 -42 -32
-45 -35 -4 -5 -103 -79 -195 -146 -85 -62 -473 -318 -560 -370 -168 -100 -294
-173 -300 -173 -3 0 -23 -11 -45 -25 -54 -34 -432 -222 -560 -279 -58 -26
-114 -51 -125 -56 -147 -67 -520 -208 -722 -273 -440 -143 -947 -264 -1343
-321 -227 -33 -357 -48 -505 -61 -38 -4 -85 -8 -102 -10 -18 -2 -88 -7 -155
-10 -67 -4 -151 -9 -187 -11 -107 -6 -567 -5 -691 1 -193 9 -405 23 -455 30
-16 2 -61 7 -100 10 -38 4 -81 8 -95 10 -14 3 -47 7 -75 10 -27 3 -61 8 -75
10 -14 3 -45 7 -70 10 -41 5 -301 48 -360 60 -14 2 -36 7 -50 10 -14 2 -40 7
-59 10 -19 3 -37 7 -40 9 -3 2 -22 7 -41 10 -27 4 -299 68 -390 91 -206 53
-485 141 -709 221 -1379 498 -2593 1335 -3558 2454 -725 841 -1285 1836 -1628
2890 -84 260 -182 618 -219 800 -6 28 -7 37 -41 205 -26 131 -70 394 -81 490
-3 33 -8 67 -9 75 -2 8 -6 42 -9 75 -4 33 -9 74 -11 90 -2 17 -7 68 -10 115
-3 47 -8 96 -10 110 -21 138 -28 956 -11 1185 5 66 10 134 11 150 3 43 16 185
20 215 2 14 6 54 10 90 4 36 8 76 10 90 2 14 6 43 9 65 14 111 19 138 36 240
10 61 21 126 24 145 3 19 8 44 10 55 6 28 46 225 52 255 3 13 20 88 39 165
187 781 503 1567 911 2267 95 162 239 393 277 443 4 6 28 42 54 80 314 471
834 1069 1289 1482 879 798 1917 1406 3027 1774 206 69 502 156 627 184 312
71 420 94 520 111 19 3 67 12 105 19 39 8 95 16 125 20 30 3 62 8 71 11 9 2
36 6 60 9 76 7 143 15 165 20 21 5 99 12 304 29 141 12 195 15 360 22 91 4
166 7 167 8 4 3 409 -3 543 -8z"/>
<path d="M8249 16696 c-2 -2 -62 -7 -134 -11 -71 -3 -146 -8 -165 -10 -19 -1
-66 -6 -105 -9 -38 -4 -86 -8 -105 -11 -19 -2 -60 -7 -90 -10 -30 -4 -66 -8
-80 -10 -14 -2 -50 -6 -80 -10 -30 -3 -93 -13 -140 -20 -47 -8 -103 -17 -125
-21 -68 -10 -297 -54 -355 -69 -30 -7 -68 -16 -85 -18 -70 -11 -375 -93 -575
-154 -289 -88 -634 -218 -920 -345 -141 -63 -498 -241 -600 -299 -310 -176
-592 -354 -822 -520 -110 -79 -352 -265 -379 -291 -8 -7 -47 -39 -87 -72 -249
-202 -619 -560 -862 -836 -36 -40 -72 -80 -80 -89 -24 -26 -193 -232 -230
-281 -19 -25 -37 -47 -40 -50 -14 -13 -137 -180 -222 -300 -101 -144 -168
-245 -267 -405 -34 -55 -66 -107 -71 -115 -90 -145 -343 -628 -409 -780 -13
-30 -42 -95 -63 -145 -175 -396 -359 -952 -449 -1350 -30 -136 -69 -316 -75
-350 -2 -16 -11 -66 -19 -110 -8 -44 -17 -98 -21 -120 -3 -22 -12 -80 -19
-130 -8 -49 -17 -112 -20 -140 -2 -27 -7 -66 -10 -85 -4 -33 -7 -65 -20 -210
-3 -36 -8 -83 -10 -105 -25 -256 -26 -923 -1 -1225 2 -19 7 -75 10 -125 4 -49
9 -97 11 -105 2 -8 7 -49 10 -90 4 -41 9 -82 10 -91 2 -9 6 -40 10 -70 3 -30
8 -61 10 -69 2 -8 7 -39 10 -69 4 -30 9 -63 11 -75 2 -11 6 -38 10 -61 22
-151 113 -563 178 -805 176 -654 486 -1377 854 -1990 539 -898 1235 -1675
2062 -2302 532 -403 1108 -739 1705 -994 356 -151 743 -286 1060 -369 55 -15
107 -28 115 -31 215 -56 521 -119 780 -159 30 -4 172 -24 220 -30 19 -3 51 -7
70 -10 19 -2 62 -7 95 -10 33 -3 83 -7 110 -10 28 -3 79 -7 115 -10 36 -2 115
-8 175 -12 221 -15 871 -8 1075 12 83 7 188 17 225 20 53 5 172 19 260 31 22
3 119 18 215 34 225 38 226 38 285 51 28 6 61 13 75 15 14 3 75 16 135 30 145
34 135 32 173 43 18 5 35 10 37 10 42 4 315 84 530 156 442 147 918 351 1275
548 261 143 450 256 635 380 131 87 317 217 325 227 3 3 21 17 40 30 90 62
444 347 516 415 6 5 51 46 100 90 198 179 492 481 673 690 144 167 136 157
237 285 392 499 725 1036 973 1568 110 238 123 267 207 479 212 534 367 1096
460 1666 2 15 6 39 8 55 13 74 36 244 41 297 7 67 13 123 20 175 2 19 7 76 10
125 3 50 8 115 11 145 12 132 18 633 9 840 -5 137 -15 286 -20 330 -2 19 -7
71 -10 115 -3 44 -8 91 -10 105 -2 14 -6 52 -10 85 -18 160 -56 407 -90 584
-204 1056 -634 2095 -1232 2979 -89 133 -303 425 -385 526 -260 323 -631 718
-902 961 -49 44 -94 85 -100 90 -6 6 -78 67 -161 136 -306 255 -677 517 -1038
733 -97 58 -179 106 -182 106 -2 0 -28 14 -57 32 -90 53 -474 242 -653 321
-515 226 -1133 420 -1660 522 -16 3 -41 8 -55 10 -14 3 -38 8 -55 11 -197 35
-259 45 -291 49 -22 2 -52 6 -69 9 -16 2 -55 7 -85 11 -30 3 -66 8 -80 10 -14
2 -54 7 -90 10 -36 4 -81 8 -100 10 -19 2 -73 6 -120 10 -47 3 -114 8 -150 11
-73 7 -835 15 -841 10z m826 -240 c28 -2 93 -7 145 -11 52 -3 106 -8 120 -10
14 -2 57 -6 95 -10 39 -3 81 -8 95 -10 14 -2 50 -7 80 -10 30 -3 80 -10 110
-15 30 -5 73 -12 95 -15 58 -8 156 -24 185 -30 236 -47 298 -59 370 -76 246
-57 423 -107 665 -186 878 -286 1674 -710 2415 -1287 63 -49 117 -92 120 -95
3 -4 43 -38 90 -76 198 -162 524 -472 707 -671 115 -126 272 -306 328 -378 17
-21 38 -48 49 -60 10 -11 37 -46 60 -76 22 -30 43 -57 46 -60 17 -17 193 -260
271 -375 89 -130 255 -396 324 -520 304 -543 530 -1072 694 -1622 76 -257 114
-408 181 -723 24 -113 74 -426 91 -570 5 -47 12 -103 15 -125 7 -53 12 -111
19 -220 4 -49 10 -133 15 -185 7 -95 5 -846 -3 -950 -3 -30 -8 -93 -11 -140
-4 -47 -9 -101 -11 -120 -2 -19 -7 -60 -10 -90 -3 -30 -8 -72 -10 -92 -3 -21
-7 -57 -10 -80 -3 -24 -10 -70 -15 -103 -5 -33 -17 -107 -26 -165 -90 -584
-298 -1283 -551 -1860 -74 -169 -232 -494 -238 -489 -6 6 -20 150 -30 314 -3
44 -7 100 -10 125 -3 25 -7 83 -11 130 -3 47 -7 96 -9 110 -2 14 -4 49 -4 78
-1 28 -4 52 -8 52 -5 0 -80 -51 -168 -114 -88 -63 -198 -141 -245 -175 -47
-33 -155 -110 -240 -170 -85 -60 -186 -132 -225 -160 -162 -116 -730 -520
-790 -561 -36 -25 -75 -53 -88 -62 -12 -9 -155 -112 -317 -227 -162 -115 -302
-216 -311 -223 -13 -10 -19 -38 -24 -113 -4 -55 -8 -116 -10 -135 -2 -19 -6
-73 -10 -120 -3 -47 -7 -105 -10 -130 -4 -50 -13 -151 -20 -250 -3 -36 -7 -87
-10 -115 -4 -48 -11 -134 -20 -240 -2 -27 -7 -86 -10 -130 -3 -44 -8 -102 -10
-130 -7 -82 -14 -165 -20 -250 -3 -44 -8 -98 -10 -120 -3 -22 -7 -74 -10 -115
-5 -81 -16 -194 -18 -197 -2 -1 -208 -129 -327 -203 -72 -45 -325 -183 -450
-247 -513 -261 -1072 -470 -1645 -616 -108 -28 -406 -93 -470 -103 -22 -3 -59
-10 -83 -15 -24 -5 -62 -12 -85 -14 -23 -3 -49 -7 -57 -10 -8 -2 -40 -7 -70
-10 -30 -3 -80 -10 -110 -15 -30 -5 -84 -12 -120 -15 -36 -4 -76 -8 -90 -10
-14 -2 -63 -7 -110 -10 -47 -3 -96 -8 -110 -10 -75 -11 -324 -19 -620 -19
-339 0 -499 6 -720 29 -25 2 -74 7 -110 11 -36 3 -73 8 -82 9 -9 2 -45 6 -80
10 -35 3 -74 8 -88 10 -20 4 -127 20 -255 40 -39 6 -90 16 -105 20 -8 2 -32 6
-52 9 -122 18 -577 131 -778 192 -506 155 -1028 372 -1440 596 -105 57 -365
209 -435 254 -38 24 -77 47 -85 51 -8 4 -17 9 -20 12 -3 3 -45 33 -95 65 -589
386 -1145 880 -1657 1473 -356 413 -738 986 -1001 1504 -91 178 -133 265 -219
459 -129 287 -327 861 -393 1140 -2 8 -17 71 -34 140 -45 185 -81 363 -106
520 -3 19 -8 42 -10 50 -2 8 -6 38 -10 65 -3 28 -10 75 -15 105 -11 62 -46
388 -54 495 -26 354 -27 882 -1 1200 12 153 16 202 20 225 2 14 6 52 10 85 12
116 16 150 20 165 3 8 7 40 10 70 3 30 10 78 15 105 5 28 11 66 14 85 3 19 15
85 27 145 11 61 23 121 25 135 3 14 11 53 19 86 8 34 16 73 19 85 31 151 131
503 203 719 285 851 713 1646 1264 2351 58 74 115 146 127 160 97 115 149 176
158 184 5 6 46 51 90 100 137 156 460 475 634 625 34 30 75 65 89 78 14 13 89
74 166 136 652 525 1372 940 2129 1228 122 46 372 135 406 143 8 3 76 23 150
45 142 43 450 125 510 135 19 3 60 12 90 19 30 8 71 17 90 20 19 3 46 8 60 11
37 8 299 53 340 59 19 3 58 8 85 11 28 3 61 8 75 10 14 3 48 7 75 10 28 3 66
8 85 10 19 3 71 8 115 11 44 3 91 8 105 9 14 2 86 7 160 10 74 4 137 9 138 10
6 5 750 -3 807 -9z"/>
<path d="M14290 12174 c-468 -122 -786 -233 -957 -336 -78 -46 -139 -113 -142
-153 -1 -7 391 -10 1159 -10 l1160 0 0 25 c0 65 -191 187 -445 283 -191 72
-658 209 -704 206 -9 0 -41 -7 -71 -15z"/>
<path d="M5885 12128 c-372 -48 -722 -370 -978 -899 -74 -152 -159 -366 -192
-484 -33 -118 -84 -326 -90 -367 -4 -24 -8 -45 -10 -48 -2 -3 -6 -24 -9 -46
-4 -22 -8 -49 -10 -61 -9 -47 -34 -211 -41 -268 -3 -27 -8 -61 -10 -75 -5 -28
-13 -94 -20 -160 -2 -25 -8 -88 -14 -140 -5 -52 -12 -129 -16 -170 -3 -41 -8
-91 -10 -110 -3 -19 -7 -69 -10 -111 -4 -41 -8 -84 -10 -95 -2 -10 -4 -29 -4
-40 -2 -37 -228 -127 -400 -160 -91 -18 -297 -24 -391 -12 -283 37 -552 166
-725 349 -77 83 -116 138 -160 232 -223 470 54 984 572 1059 68 10 83 15 83
30 0 15 -7 17 -57 12 -48 -4 -116 -16 -213 -38 -60 -14 -191 -76 -266 -125
-248 -164 -370 -396 -359 -681 11 -287 176 -568 438 -749 141 -97 379 -177
591 -198 128 -13 381 -6 446 12 8 2 31 7 50 10 62 10 233 66 309 101 41 19 75
34 75 34 1 0 1 -14 0 -31 -7 -94 -16 -218 -19 -249 -2 -19 -6 -80 -10 -135 -4
-55 -8 -113 -10 -130 -2 -16 -6 -73 -10 -125 -3 -52 -8 -106 -10 -120 -2 -14
-7 -72 -10 -130 -4 -58 -8 -112 -10 -120 -1 -8 -6 -60 -10 -115 -4 -55 -8
-106 -10 -115 -1 -8 -6 -60 -10 -115 -4 -55 -9 -111 -10 -125 -2 -14 -4 -33
-4 -42 -1 -16 -4 -16 -36 2 -412 231 -895 391 -1350 445 -185 22 -523 22 -636
0 -13 -3 -44 -8 -69 -11 -92 -12 -271 -63 -359 -102 -448 -199 -620 -581 -425
-941 159 -292 564 -579 1058 -751 124 -43 362 -101 469 -115 17 -2 64 -9 104
-14 199 -29 651 -32 814 -6 13 2 53 6 89 9 36 4 121 16 190 27 69 11 141 22
160 25 19 3 43 7 52 10 10 3 30 8 45 10 108 19 371 83 548 133 290 82 323 92
635 198 151 51 282 95 290 98 13 3 280 98 695 247 77 28 174 63 215 78 298
110 834 262 1075 305 17 2 39 7 50 9 22 4 205 35 245 41 39 6 132 17 170 20
46 4 161 14 230 21 116 11 625 4 790 -11 25 -2 79 -7 120 -10 41 -4 86 -8 100
-10 14 -3 50 -7 80 -10 30 -3 62 -7 70 -9 8 -3 38 -8 65 -11 28 -4 64 -8 80
-10 236 -32 768 -168 1268 -326 186 -59 591 -198 652 -224 17 -7 86 -34 154
-59 96 -36 126 -44 133 -34 16 26 8 45 -24 55 -18 6 -112 41 -208 78 -376 144
-993 348 -1345 445 -44 12 -91 26 -105 31 -28 9 -490 125 -530 133 -14 2 -80
16 -146 30 -229 47 -430 78 -719 110 -239 27 -821 28 -975 1 -14 -2 -47 -6
-75 -9 -162 -17 -598 -99 -668 -125 -13 -5 -37 -12 -53 -14 -135 -24 -632
-177 -1147 -353 -15 -6 -17 -2 -12 32 3 22 7 113 10 204 2 91 6 174 8 185 3
11 8 56 12 99 4 43 8 86 10 95 1 9 6 43 9 76 20 175 59 405 77 453 5 14 40 60
77 101 37 42 81 91 97 110 17 19 54 60 82 90 l53 56 1 -30 c0 -16 2 -41 5 -55
9 -59 24 -147 29 -171 17 -91 59 -207 83 -231 77 -78 160 -16 217 162 52 161
219 547 292 675 56 98 97 157 89 130 -3 -11 -8 -35 -11 -52 -3 -18 -12 -61
-20 -96 -8 -34 -17 -80 -20 -102 -4 -22 -8 -47 -10 -55 -3 -8 -7 -35 -10 -60
-3 -25 -10 -76 -16 -114 -23 -162 -6 -368 35 -430 21 -34 69 -57 114 -58 128
-1 242 103 352 321 22 44 42 81 43 81 1 0 2 -48 2 -108 1 -117 13 -166 52
-213 66 -78 189 -66 290 29 36 33 153 199 153 217 0 4 9 19 19 34 10 14 44 73
75 131 l56 105 1 -70 c0 -38 2 -81 4 -95 13 -135 18 -174 31 -233 17 -82 35
-119 68 -141 66 -43 128 3 193 144 133 287 300 590 395 717 34 46 63 81 65 79
2 -2 -12 -52 -31 -112 -82 -258 -145 -567 -139 -684 4 -86 27 -129 81 -157 89
-45 193 -10 308 102 l62 61 22 -48 c26 -59 87 -120 149 -150 34 -17 66 -24
123 -25 68 -2 84 2 140 29 82 41 192 151 243 242 21 38 68 144 104 237 60 153
69 170 106 196 65 47 64 47 53 0 -10 -43 -14 -67 -24 -146 -3 -25 -8 -49 -10
-53 -11 -18 -11 -271 0 -330 27 -141 110 -184 194 -98 68 68 207 320 343 618
11 23 22 42 24 42 5 0 -4 -71 -11 -81 -8 -13 -18 -139 -16 -198 2 -84 31 -143
84 -175 77 -46 126 -16 233 144 75 112 103 162 188 333 l63 128 72 -121 c40
-66 72 -122 72 -123 0 -2 -33 -30 -72 -62 -215 -176 -294 -266 -332 -380 -57
-166 30 -304 196 -311 136 -5 308 66 409 168 127 130 162 285 108 483 -6 22
-13 50 -16 63 -3 12 -9 25 -14 28 -5 3 -9 12 -9 20 0 21 -105 230 -164 327
-46 76 -86 156 -94 187 -11 47 -2 112 19 147 37 60 25 103 -39 130 -88 37
-191 -49 -220 -182 -17 -79 10 -225 57 -314 10 -17 1 -40 -54 -148 -159 -313
-237 -433 -282 -433 -34 0 -35 100 -3 245 19 87 100 407 121 479 27 91 29 154
5 190 -16 25 -23 28 -57 23 -83 -11 -127 -74 -230 -333 -102 -255 -246 -546
-300 -607 -36 -41 -44 -46 -56 -35 -25 26 -20 94 22 278 42 185 57 238 155
542 63 197 64 215 9 243 -62 32 -109 10 -166 -79 -52 -79 -125 -276 -167 -451
-16 -67 -19 -72 -71 -108 -49 -34 -53 -36 -48 -15 3 13 7 93 8 178 4 189 -12
253 -75 318 -81 85 -206 122 -295 88 -92 -36 -175 -175 -189 -317 -5 -56 -15
-75 -41 -87 -39 -18 -114 -92 -150 -147 -32 -51 -79 -159 -89 -205 -3 -14 -12
-54 -21 -90 -9 -36 -16 -95 -17 -131 0 -65 -1 -68 -47 -117 -25 -27 -53 -52
-63 -55 -41 -14 -66 74 -66 228 1 111 20 208 87 438 56 192 64 263 37 315 -24
46 -59 66 -117 64 -58 -1 -99 -23 -156 -85 -78 -85 -276 -408 -393 -642 l-55
-110 -5 45 c-10 80 -2 263 15 340 18 85 53 145 198 335 73 96 179 249 222 320
9 15 19 13 103 -23 112 -49 114 -42 3 13 -76 38 -94 56 -71 70 28 17 180 367
206 473 35 144 44 190 54 260 6 46 10 123 9 170 -5 196 -67 286 -199 286 -127
0 -266 -126 -384 -347 -81 -151 -224 -534 -270 -722 l-17 -71 -64 -23 c-35
-12 -124 -51 -196 -87 -73 -35 -134 -63 -135 -61 -1 1 13 70 32 152 117 521
186 742 289 935 63 117 81 156 80 170 -1 8 -3 23 -3 32 -1 11 -16 21 -38 27
-81 22 -196 -30 -254 -114 -75 -110 -232 -654 -331 -1150 -18 -88 -33 -162
-35 -164 -2 -2 -29 -9 -61 -15 -62 -13 -96 -13 -185 -1 -124 17 -34 -44 102
-69 14 -2 49 -5 78 -5 l53 -1 -6 -37 c-3 -21 -10 -63 -15 -94 -6 -31 -12 -74
-14 -95 -3 -22 -9 -68 -15 -104 -5 -36 -12 -87 -15 -115 -3 -27 -9 -72 -12
-100 -4 -27 -7 -64 -9 -80 -2 -33 -53 -126 -151 -276 -47 -72 -72 -101 -100
-114 -35 -16 -37 -16 -55 2 -17 17 -19 34 -19 149 0 124 2 150 15 259 3 28 8
66 10 85 6 50 16 118 21 143 2 12 6 36 9 52 3 17 10 53 15 80 38 186 1 283
-106 287 -67 3 -120 -29 -179 -107 -54 -71 -264 -492 -326 -652 -24 -62 -47
-113 -51 -113 -5 0 -9 12 -9 28 -1 15 -3 38 -6 52 -12 75 -14 255 -4 316 14
76 31 113 109 233 232 359 385 681 427 900 2 13 6 30 9 39 3 9 8 37 11 62 4
24 8 47 10 50 7 12 19 161 19 245 2 222 -33 322 -127 369 -83 42 -170 21 -259
-61 -125 -117 -203 -275 -294 -593 -96 -332 -139 -580 -160 -920 -4 -58 -6
-193 -6 -301 l0 -195 -32 -35 c-17 -19 -70 -77 -116 -129 -141 -159 -130 -148
-130 -125 0 35 38 177 79 300 47 139 50 173 19 202 -37 33 -61 42 -113 39 -63
-4 -107 -26 -134 -69 -21 -34 -91 -186 -166 -362 -95 -224 -188 -386 -235
-410 -27 -14 -31 -13 -58 9 -73 62 -71 199 5 426 85 254 264 450 449 493 79
19 100 31 111 64 35 106 -74 173 -209 128 -76 -25 -148 -76 -258 -184 -163
-161 -241 -282 -298 -461 -39 -123 -45 -156 -46 -265 -1 -87 -30 -207 -59
-242 -5 -7 -6 -13 -3 -13 12 0 -74 -157 -99 -180 -13 -12 -36 -22 -51 -22 -59
0 -88 86 -88 267 0 107 11 281 19 295 1 3 6 30 9 60 10 83 31 163 76 293 23
65 40 128 38 140 -4 29 -43 47 -100 47 -61 0 -105 -37 -142 -120 -31 -68 -30
-65 -55 -183 -31 -140 -32 -152 -37 -342 -6 -250 14 -324 111 -421 58 -56 128
-94 178 -94 34 0 74 33 109 90 18 30 74 174 95 244 l15 50 33 -62 c50 -95 126
-151 205 -152 87 0 150 64 248 253 114 219 162 315 162 326 0 5 5 13 12 17 6
4 9 3 6 -2 -6 -9 -16 -105 -23 -229 -11 -170 -27 -207 -148 -346 -229 -263
-412 -606 -421 -787 -4 -88 14 -148 64 -205 l40 -45 -57 -18 c-32 -9 -76 -18
-98 -21 -38 -4 -43 -1 -122 76 -179 174 -431 379 -648 527 -71 48 -133 92
-136 97 -4 5 -5 23 -4 41 2 17 6 99 10 181 4 83 8 166 10 185 3 35 16 225 20
290 8 120 17 249 20 275 2 17 6 75 10 130 4 55 8 111 10 125 2 14 7 68 10 120
3 52 8 109 10 125 5 41 15 156 20 234 2 36 10 70 17 76 7 7 40 22 73 35 33 13
64 27 70 32 5 4 15 8 21 8 15 0 251 113 344 165 304 170 604 397 847 643 533
537 753 1122 618 1640 -63 241 -201 435 -370 518 -104 51 -236 69 -370 52z
m178 -332 c155 -37 292 -200 346 -411 16 -65 19 -103 16 -210 -5 -184 -45
-337 -145 -550 -231 -491 -651 -938 -1180 -1255 -99 -59 -429 -230 -445 -230
-7 0 -1 86 9 150 5 27 12 88 21 165 4 28 8 57 10 65 3 8 7 38 10 66 3 28 8 61
10 74 3 13 7 42 10 65 3 22 8 47 10 55 2 8 7 33 10 55 3 23 7 52 10 65 3 14 9
50 15 80 6 30 12 66 15 80 3 14 8 39 11 55 18 103 101 418 140 533 85 256 295
647 454 847 164 206 366 317 565 311 44 -2 93 -6 108 -10z m3144 -1498 c35
-40 43 -83 39 -217 -2 -69 -6 -135 -9 -146 -3 -11 -8 -40 -12 -65 -32 -197
-69 -317 -150 -486 -54 -115 -67 -132 -88 -116 -17 13 -175 68 -219 76 -31 6
-38 11 -38 31 0 13 4 34 9 48 5 13 12 39 15 58 10 61 85 316 127 431 76 207
157 355 213 389 42 26 88 24 113 -3z m-1990 -23 c41 -29 58 -106 58 -270 0
-173 -7 -252 -34 -393 -34 -177 -111 -370 -221 -556 -54 -91 -183 -269 -219
-300 l-22 -20 6 145 c3 79 8 167 10 194 12 132 20 208 30 275 2 14 6 45 10 70
5 39 35 205 50 279 46 234 151 511 216 565 35 30 83 34 116 11z m1693 -1006
c19 -7 47 -16 62 -22 l28 -9 -66 -97 c-73 -105 -177 -231 -248 -300 l-45 -44
4 44 c8 73 27 223 31 244 2 10 6 37 10 60 3 22 10 62 15 89 5 27 9 51 9 54 0
9 164 -7 200 -19z m-474 -96 c-5 -19 -22 -116 -30 -173 -3 -19 -8 -51 -10 -70
-3 -19 -8 -57 -11 -85 -4 -27 -8 -61 -10 -75 -4 -29 -12 -112 -21 -225 -6 -82
-16 -107 -88 -219 -68 -105 -177 -197 -236 -198 -56 -2 -63 16 -65 164 -1 73
2 165 6 203 5 39 11 93 14 120 3 28 8 61 11 75 2 14 6 39 8 55 2 17 9 59 15
95 19 108 19 114 20 136 1 17 22 32 103 70 56 27 142 70 192 96 102 53 109 55
102 31z m1585 -155 c54 -45 68 -120 65 -348 -2 -174 -12 -232 -40 -243 -22 -9
-130 -1 -158 11 -45 19 -61 64 -64 177 -4 178 58 356 139 402 28 16 40 16 58
1z m-203 -604 c24 -11 68 -16 130 -17 110 -1 107 5 58 -133 -91 -252 -247
-417 -346 -364 -36 19 -56 149 -39 245 4 22 10 63 13 90 6 60 27 130 58 201
l23 52 33 -29 c18 -16 49 -36 70 -45z m1786 -107 c23 -75 28 -132 16 -195 -30
-162 -132 -267 -261 -267 -90 1 -144 50 -142 131 3 92 117 245 268 360 81 62
91 59 119 -29z m-5589 -629 c-2 -13 -7 -60 -10 -105 -2 -45 -7 -105 -10 -132
-3 -28 -7 -75 -10 -103 -5 -49 -11 -101 -20 -173 -9 -68 -36 -229 -40 -235 -2
-4 -6 -18 -9 -32 -7 -41 -41 -110 -66 -137 -27 -28 -76 -49 -128 -56 -52 -6
-95 22 -126 83 -71 141 -25 320 146 562 40 58 81 114 90 125 10 11 54 66 98
123 45 56 84 102 86 102 2 0 2 -10 -1 -22z m-3000 -63 c28 -3 75 -10 105 -15
30 -5 73 -12 95 -16 71 -10 306 -73 428 -114 304 -102 667 -282 952 -473 83
-56 283 -203 295 -217 3 -3 43 -39 90 -79 47 -41 118 -106 159 -145 l73 -71
-88 -28 c-49 -16 -93 -30 -99 -31 -5 -2 -17 -6 -25 -9 -23 -9 -202 -58 -229
-64 -14 -2 -28 -6 -33 -9 -4 -3 -16 -7 -25 -9 -10 -2 -101 -24 -203 -49 -102
-24 -212 -49 -245 -55 -33 -6 -71 -13 -85 -16 -77 -16 -317 -50 -420 -60 -36
-3 -81 -8 -100 -10 -267 -31 -657 -19 -954 31 -312 52 -569 158 -776 320 -106
82 -162 145 -213 237 -35 63 -42 96 -41 195 1 76 5 90 42 165 22 45 69 116
105 157 177 209 403 326 697 363 106 14 401 15 495 2z"/>
<path d="M11815 11669 c-7 -10 594 -245 725 -284 109 -33 322 -56 334 -37 11
18 -122 93 -241 138 -34 13 -201 55 -370 93 -428 96 -443 99 -448 90z"/>
<path d="M13364 11571 c-2 -2 -4 -224 -4 -491 l0 -487 762 1 761 1 0 465 c-1
256 -2 476 -2 490 l-1 25 -756 0 c-415 0 -757 -2 -760 -4z"/>
<path d="M14955 11085 l0 -490 190 0 190 0 3 490 2 490 -193 0 -192 0 0 -490z"/>
<path d="M11080 11149 c-14 -4 -22 -8 -17 -9 17 -6 25 -7 92 -14 39 -5 79 -10
90 -12 11 -2 40 -6 65 -9 25 -3 56 -8 70 -10 14 -2 50 -7 80 -10 30 -3 89 -10
130 -15 41 -5 95 -11 120 -14 25 -3 65 -8 90 -11 25 -2 68 -7 95 -10 28 -3 64
-7 80 -10 17 -2 53 -7 80 -11 28 -3 61 -8 75 -10 56 -11 489 -10 565 0 71 10
78 13 58 24 -12 6 -52 19 -90 28 -103 24 -87 21 -323 58 -19 3 -100 8 -180 11
-80 3 -210 7 -290 10 -80 3 -282 8 -450 11 -168 3 -307 7 -310 8 -3 2 -16 0
-30 -5z"/>
<path d="M12338 10725 c-2 -1 -46 -5 -98 -9 -52 -3 -111 -8 -130 -11 -19 -2
-71 -6 -115 -10 -44 -3 -102 -8 -130 -10 -27 -3 -75 -7 -106 -10 -99 -7 -193
-16 -219 -20 -14 -2 -61 -7 -105 -11 -78 -6 -93 -9 -84 -18 7 -7 177 -14 514
-22 387 -9 474 -10 565 -2 92 9 287 46 314 60 20 11 20 11 -4 20 -13 5 -40 11
-59 14 -20 3 -47 7 -61 10 -14 3 -74 7 -135 10 -60 3 -118 7 -127 8 -9 2 -18
3 -20 1z"/>
<path d="M12877 10502 c-12 -3 -17 -14 -17 -41 0 -50 36 -103 80 -117 25 -8
428 -11 1437 -11 1333 0 1404 1 1432 18 40 24 62 60 66 108 3 36 1 41 -18 42
-90 2 -2967 3 -2980 1z"/>
<path d="M13010 10036 c0 -170 3 -225 13 -228 10 -3 2612 -2 2697 1 l25 1 -2
187 c-1 104 -2 205 -2 225 l-1 38 -1365 0 -1365 0 0 -224z"/>
<path d="M12851 9663 c3 -47 19 -81 54 -113 l27 -25 1421 -3 c1339 -2 1424 -1
1457 15 52 27 78 82 71 151 -1 9 -311 12 -1517 12 l-1516 0 3 -37z"/>
<path d="M13200 9408 c0 -4 15 -44 32 -90 25 -64 44 -95 83 -133 84 -85 29
-81 1060 -80 893 1 900 1 947 22 70 32 122 92 157 181 16 43 31 84 33 92 3 12
-151 14 -1154 15 -637 0 -1158 -3 -1158 -7z"/>
<path d="M5127 8997 c-43 -25 -67 -69 -67 -127 0 -56 25 -96 77 -121 96 -46
203 20 203 126 0 109 -118 177 -213 122z"/>
<path d="M13509 9006 c-3 -6 -8 -49 -14 -133 -4 -54 -8 -111 -10 -126 -2 -16
-7 -72 -10 -125 -4 -54 -9 -104 -10 -113 -2 -9 -6 -68 -10 -130 -4 -62 -8
-120 -10 -129 -1 -8 -6 -62 -10 -120 -4 -58 -8 -112 -10 -120 -1 -8 -6 -64
-10 -125 -4 -60 -8 -117 -10 -125 -2 -8 -6 -60 -10 -115 -3 -55 -8 -116 -10
-135 -2 -19 -7 -73 -10 -120 -3 -47 -8 -101 -10 -120 -2 -19 -7 -73 -10 -120
-3 -47 -8 -101 -10 -120 -3 -28 -17 -220 -17 -240 -1 -27 13 -22 85 30 45 32
100 72 122 88 22 16 211 150 420 299 209 148 569 404 800 569 231 164 424 301
429 303 5 2 16 9 25 17 9 7 36 28 61 46 34 26 45 40 43 59 -1 28 -12 170 -18
244 -2 28 -7 86 -11 130 -3 44 -8 103 -9 130 -5 75 -17 228 -21 245 -1 8 -3
25 -3 36 l-1 22 -870 0 c-478 0 -870 -1 -871 -2z"/>
<path d="M12381 8943 c-164 -42 -289 -176 -383 -413 -26 -66 -63 -190 -73
-245 -6 -35 -13 -70 -20 -105 -3 -14 -6 -66 -7 -117 -1 -132 28 -220 97 -289
105 -105 247 -116 381 -28 91 60 242 243 330 399 6 11 51 90 101 175 88 154
133 241 133 260 0 19 -29 -3 -57 -43 -329 -486 -555 -728 -661 -711 -118 20
-146 136 -87 359 9 32 17 60 18 61 1 1 38 19 83 42 155 77 301 191 386 302 65
85 88 164 69 237 -26 96 -173 152 -310 116z m149 -158 c102 -53 71 -182 -79
-323 -66 -62 -195 -135 -261 -149 l-30 -5 56 162 c73 216 97 260 164 306 41
28 106 32 150 9z"/>
<path d="M15300 8031 c-28 -18 -305 -215 -365 -258 -22 -17 -94 -68 -160 -115
-66 -46 -322 -228 -570 -404 -247 -176 -550 -392 -672 -478 -219 -156 -223
-159 -224 -195 0 -20 -2 -43 -4 -52 -1 -9 -6 -61 -10 -115 -4 -54 -8 -117 -10
-139 -2 -22 -6 -76 -10 -120 -3 -44 -8 -98 -10 -120 -3 -22 -7 -74 -10 -115
-6 -87 -15 -194 -30 -370 -7 -80 -14 -165 -20 -250 -3 -41 -8 -102 -10 -135
-3 -33 -8 -86 -10 -117 -9 -102 -15 -177 -20 -235 -3 -32 -7 -92 -10 -133 -3
-41 -8 -100 -10 -130 -6 -69 -12 -133 -20 -235 -4 -44 -8 -84 -8 -90 -3 -14
19 -12 40 3 10 7 124 88 253 180 129 92 246 175 260 184 58 41 222 158 461
328 112 80 213 152 225 160 13 8 99 69 191 135 92 67 344 246 560 399 216 154
391 282 389 285 -2 3 -7 53 -10 111 -4 58 -9 121 -11 140 -4 36 -14 164 -20
255 -2 28 -7 84 -10 125 -3 41 -8 102 -10 135 -7 90 -15 194 -20 245 -3 25 -7
81 -10 125 -3 44 -7 107 -10 140 -9 111 -14 169 -20 260 -4 50 -8 106 -10 125
-2 19 -7 76 -10 125 -4 50 -8 104 -10 120 -2 17 -7 77 -10 135 -4 58 -8 106
-9 106 0 1 -12 -6 -26 -15z"/>
<path d="M8550 6140 c-87 -15 -155 -91 -159 -178 -6 -139 113 -237 245 -201
34 10 84 45 84 60 0 15 -17 10 -57 -17 -32 -22 -46 -25 -91 -22 -94 8 -146 65
-149 163 -2 56 2 68 28 105 32 44 63 61 119 65 37 3 93 -16 120 -40 16 -14 30
-11 30 6 0 12 -61 46 -100 56 -19 5 -51 6 -70 3z"/>
<path d="M9032 6139 c-51 -10 -101 -39 -122 -71 -31 -48 -36 -65 -39 -115 -8
-162 170 -256 302 -159 49 36 70 84 69 163 0 116 -99 202 -210 182z m106 -45
c54 -35 70 -62 76 -130 4 -34 -1 -61 -14 -90 -50 -115 -196 -126 -274 -21 -31
42 -33 131 -4 182 43 75 148 104 216 59z"/>
<path d="M7469 6131 c-1 -3 -2 -88 -3 -188 -1 -142 1 -183 11 -183 14 0 15 3
17 80 1 30 5 60 9 67 13 20 115 10 131 -13 8 -10 28 -37 45 -59 17 -22 37 -48
45 -58 8 -11 21 -17 30 -15 11 2 0 23 -44 79 l-59 76 40 17 c47 21 72 62 64
108 -6 36 -54 87 -83 89 -67 5 -202 4 -203 0z m207 -31 c34 -13 53 -38 54 -68
1 -63 -52 -92 -163 -92 l-73 0 0 85 1 85 77 0 c42 0 89 -5 104 -10z"/>
<path d="M7949 6130 c-4 -16 -5 -347 -1 -357 5 -16 257 -18 267 -3 7 12 2 12
-135 14 l-104 1 -1 77 -1 77 103 -1 c98 -1 125 4 110 18 -4 4 -53 7 -109 8
l-103 1 0 73 -1 72 118 0 c89 0 118 3 118 13 0 9 -32 12 -130 12 -71 0 -131
-2 -131 -5z"/>
<path d="M9390 6130 c0 -6 16 -48 36 -93 74 -166 81 -183 100 -229 21 -52 48
-64 59 -25 4 12 21 51 37 87 17 36 43 94 58 130 15 36 35 81 43 101 13 30 14
36 2 36 -8 0 -24 -23 -36 -51 -12 -28 -33 -76 -46 -106 -31 -70 -47 -107 -63
-148 -14 -36 -33 -31 -44 14 -4 14 -20 54 -36 90 -17 35 -30 67 -30 69 0 16
-62 135 -70 135 -5 0 -10 -5 -10 -10z"/>
<path d="M9922 6130 c-4 -3 -7 -86 -7 -185 l0 -180 137 -3 c110 -2 137 0 133
10 -4 10 -35 13 -122 13 l-117 0 -1 65 c-1 36 0 71 3 78 3 8 28 12 86 11 115
-2 126 -1 126 14 0 9 -26 11 -102 10 -57 -2 -105 1 -108 7 -3 5 -6 38 -5 72
l0 63 118 3 c84 2 117 6 117 15 0 9 -34 12 -125 12 -69 1 -129 -2 -133 -5z"/>
<path d="M10382 6131 c-4 -3 -7 -87 -7 -186 0 -153 2 -180 15 -180 12 0 15 15
15 75 l0 74 56 2 c66 2 66 2 105 -51 16 -22 35 -46 41 -53 7 -7 19 -22 27 -33
8 -12 21 -19 30 -17 11 2 0 23 -44 79 l-59 76 39 17 c49 21 68 51 65 101 -2
29 -10 45 -34 67 -17 15 -39 28 -49 29 -76 4 -193 4 -200 0z m205 -31 c54 -19
68 -81 29 -127 -23 -26 -30 -28 -118 -31 l-94 -4 2 84 c1 45 2 84 3 86 3 7
153 0 178 -8z"/>
<path d="M10825 6130 c-7 -12 -8 -11 78 -130 l69 -95 -4 -73 c-3 -60 -1 -72
12 -70 11 3 15 19 15 75 l0 71 81 114 c59 83 76 114 64 114 -11 0 -44 -39 -85
-98 -37 -54 -70 -98 -74 -98 -3 1 -35 44 -70 96 -69 102 -76 110 -86 94z"/>
<path d="M6893 5987 c5 -16 317 -17 317 -1 0 9 -44 12 -160 12 -114 0 -160 -3
-157 -11z"/>
<path d="M11374 5989 c-7 -12 -13 -11 164 -13 107 -1 152 2 152 10 0 14 -307
17 -316 3z"/>
</g>
</svg>
