<svg xmlns="http://www.w3.org/2000/svg" viewBox="0 0 1717.6 1717.6"><defs><style>.cls-1,.cls-14{fill:none;stroke:#444a60;stroke-miterlimit:10;}.cls-1{stroke-width:12px;}.cls-2,.cls-3{fill:#444a60;}.cls-3{font-size:53.7px;font-family:Gotham-Light, Gotham;font-weight:300;letter-spacing:0.36em;}.cls-4{letter-spacing:0.18em;}.cls-5{letter-spacing:0.16em;}.cls-6{letter-spacing:0.14em;}.cls-7{letter-spacing:0.16em;}.cls-8{letter-spacing:0.36em;}.cls-9{letter-spacing:0.18em;}.cls-10{fill:#22445e;}.cls-11{fill:#d0d9e1;}.cls-12,.cls-13{fill:#004b74;}.cls-12{opacity:0.41;}.cls-14{stroke-width:23px;}</style></defs><g id="Layer_2" data-name="Layer 2"><g id="Layer_1-2" data-name="Layer 1"><circle class="cls-1" cx="858.8" cy="858.8" r="852.8"/><path class="cls-2" d="M336.41,663.84l-.18-1.77c2.5-.24,4.58-.36,6.56-.37l.08,3.51c-2.05.07-4.18.2-6.3.39Z"/><path class="cls-2" d="M665.42,592.15a118,118,0,0,0-6.07-36.92c-10.1-30.13-30.39-48.36-55.68-50-28.73-1.87-70.95,10.46-108.66,80C460.52,648.85,454,720,447.68,788.79q-1.15,12.76-2.37,25.54c-.49.78-3,2.68-14.09,7.09l-1.25.51c-46.24,19.26-103.85,8-137-26.89-27.35-28.76-31.28-69.57-9.51-99.26a75.22,75.22,0,0,1,52.83-30l-.18-1.75-.16-1.75c-37.27,3.53-68.14,25.54-78.63,56.09-5.72,16.64-5.33,35.44,1.12,52.95A102.57,102.57,0,0,0,318.84,832c41.19,15.4,89.16,12.59,126-7.24-2.73,40.73-10.83,138.36-13.54,167.63l-.13,1.34,1.27.47c1.58.58,4.22,2.76,6.53,4.68,3.53,2.92,6.27,5.19,8.46,5.26a3,3,0,0,0,1.41-.3c1.2-.6,1.75-1.91,1.66-3.87-1.08-22.39,9.11-144.85,12.26-181.84a7.27,7.27,0,0,1,.61-2.86c.63-1.06,2.05-1.66,3.71-2.3a381.91,381.91,0,0,0,124.31-78.29C625.23,702.87,665.52,652.28,665.42,592.15Zm-50.8,87.32c-.45.75-.91,1.47-1.37,2.22-28,44.64-69.08,82-118.68,108.07-1.9,1-3.42,1.8-4.84,2.58-3.87,2.09-7,3.77-14.8,7.41-1.54.71-3,1.46-4.58,2.23-2.21,1.1-4.48,2.24-6.89,3.26,10.08-86.85,23.56-147,40.05-178.92l2.06-4c12.05-23.33,24.5-47.47,43.41-65.73,12.92-12.46,30.7-19.82,46.65-19.36.35,0,.7,0,1.06.05a40.16,40.16,0,0,1,29.4,14.42c12.42,14.7,16.68,31.74,16.18,48.91C641.42,630.18,626.48,660.16,614.62,679.47Z"/><path class="cls-2" d="M1046.79,1019.12c-80.74-22.84-146.88-32.82-208.13-31.41-74.62,1.72-145.15,24.65-213.35,46.84-2.21.73-7.3,2.68-14.37,5.37-18.3,7-66.71,25.55-73.31,23.67-72.91-72.26-155.69-116.19-239.43-127-34.43-4.45-67-2.81-94.2,4.73-29.52,8.19-64.79,30.47-67.13,66.26-2.36,35.94,30.37,63.67,50.1,77,44,29.77,94.17,45.32,152.14,47a416.76,416.76,0,0,0,64.66-3.45c74.9-9.56,151.41-36.89,218.9-61l17.11-6.11q9.83-3.48,19.61-7,14.64-5.25,29.28-10.44c64.61-22.69,122.51-34.85,177-37.16a608.36,608.36,0,0,1,177.18,18.89,1469.65,1469.65,0,0,1,165.68,54.1l1-2.46,1-2.46A1719.94,1719.94,0,0,0,1046.79,1019.12Zm-562,61.87q-19.28,5.43-41,10.51a559.38,559.38,0,0,1-92.67,13.56,353.21,353.21,0,0,1-90.52-5.81c-28.89-5.74-53.66-17.24-73.66-34.22-12.56-10.68-19.54-22.18-20.73-34.22s3.62-24.44,14.28-37c17.24-20.3,39.34-32.54,65.73-36.33a209,209,0,0,1,36-2,247.55,247.55,0,0,1,48.39,6.39,368.3,368.3,0,0,1,86.74,32.3c28.18,14.62,52.72,30.74,72.92,47.91,7.29,6.18,13.6,11.73,18.72,16.47,4.15,3.82,8.08,7.59,11.77,11.27Q504.07,1075.56,484.75,1081Z"/><path class="cls-2" d="M1186.44,903.14c-.07-8.93-2.22-17.63-5.37-26-3.38-9-7.88-17.67-12.19-26-6-11.49-22.9-31-11.84-44,3.64-4.27.11-9.28-4.1-11.37-4.93-2.45-10.3-.54-14.16,3-14.11,12.89-9.37,32.68-1.57,48.74-10,19.81-33.28,68.91-37.53,53.06-.8-3,.4-14.12,2.42-22.89,2.89-12.58,9.4-38.1,12.84-50,2.49-8.6,2.37-17.34-4.13-18.11-12-1.43-19.44,19.51-25,34.26-3.9,10.39-8.44,20.57-13.13,30.2-5.55,11.39-10.87,24.23-18.49,32.35-2.16,2.32-4.78,2.37-5.38-2-.95-6.7,1.39-14.88,2.78-21.44,1.51-7.11,3.23-14.14,5.06-21.1,4.62-17.56,10.28-33.91,15.72-50.93,1.41-4.46.9-6.69-1.69-8.84a10.27,10.27,0,0,0-6.58-2.72c-10.44.14-17.65,20-22,33.36-3,9.06-5.73,18.44-8,28-3.81,3-7.63,5.87-11.18,7.53.82-.38,1.95-14.74,2-15.94.1-3.58.12-7.18,0-10.77-.38-9-.94-17.65-7.27-24.62-6.57-7.23-18.81-12.76-28.57-9.81-8.86,2.69-14.45,12.44-17.57,20.58a37,37,0,0,0-2.47,10c-.24,2.84.11,6.35-1.72,8.75-1.07,1.4-5,2.82-6.61,4.38-7.83,5.83-13.52,15-17.06,24-2.21,5.6-3.44,11.62-4.9,17.46a53.38,53.38,0,0,0-1.47,19.72c-2,2.17-3.94,4.32-5.91,6.36S927,923.39,924,923c-3.6-.51-4.67-13.64-4.92-17.13-1.54-21.51,7.1-42.3,12.63-63.18,2.08-7.82,3-17.66-3.75-22.45-4.6-3.22-11.25-2.57-16.16.22s-8.43,7.3-11.68,11.78c-12.38,17-29.78,48.4-30.32,49.62q-5.17,10.35-10.38,20.7c.43-.85-.38-4.09-.47-5-.19-2-.35-4.08-.45-6.12-.21-4.1-.25-8.22-.08-12.33a89.59,89.59,0,0,1,4.19-24.14,127.33,127.33,0,0,1,8.08-12.53c11.69-14.69,23.12-30.09,32.84-46.36-1.43-.57-2.84-1.14-4.29-1.68A213,213,0,0,1,863.07,839a490,490,0,0,1,7-49.61c.4-2,.79-4,1.22-6,.16-.79.34-1.58.51-2.37,6-27.69,16-63.1,29.76-85.38,3.5-5.65,7.6-9.15,12.18-9.55,17.63-1.47,8.39,42.8,7.1,50.79-3.46,21.41-11.51,40.27-20.65,55.86q2.1.9,4.18,1.89c10-16.91,18.21-34.74,23-53.6,4-15.88,7.34-33.62,4.76-49.94-2.69-17-17.81-23.44-32.53-13.55-20.88,14-31.25,42.94-39.69,64.88A353.67,353.67,0,0,0,846,787.22,133.15,133.15,0,0,0,827,794.78c-6.84,3.37-13.52,6.58-20.09,9.66a3,3,0,0,1-.84.79c-.07,0-.12.08-.2.12.06-.23.1-.44.15-.67,2.63-12.85,5.61-25.62,8.73-38.37,1.06-4.2,2.08-8.41,3.14-12.6,3.26-13.13,6.72-26.12,11.73-38.81a173.51,173.51,0,0,1,9.42-21c4.36-7.84,15.94-22.5-1.44-21.8-13.87.57-22.18,11.67-26.27,23.87A848.43,848.43,0,0,0,781,815.6a72.65,72.65,0,0,1-10.23,2,40.69,40.69,0,0,1-15.81-.95c-5-1.33-6.49,1.06-1.16,3.41a51.83,51.83,0,0,0,25.75,3.74q-3.6,20.88-6.33,41.9-1.58,12.06-2.63,24.19c-5.56,9.81-11.6,19.74-17.52,28.89-2.25,3.48-6.34,8.5-11.35,8.31a3.8,3.8,0,0,1-3.22-2.82c-.87-2.67-.51-6.54-.59-9.35-.09-3.52-.08-7.05,0-10.56.2-6.8.75-13.6,1.52-20.35,1.56-13.59,4-27.06,6.4-40.54,1.4-8,1.51-17.86-5.65-22-4.86-2.84-11.43-1.62-16.08,1.58s-7.79,8-10.64,12.73c-10.78,17.89-25.27,50.11-26,52q-4.28,10.79-8.62,21.57c.36-.9-.73-4-.9-5-.35-2-.68-4.05-1-6.07-.57-4.08-1-8.17-1.13-12.27A88.63,88.63,0,0,1,678,861.59a129.12,129.12,0,0,1,7-13.19c21.5-32.27,41.56-67.59,47.87-105.8,2.68-16.18,4.47-34.12.51-50.18-4.12-16.69-19.72-21.83-33.55-10.74-19.63,15.75-27.5,45.47-34.05,68a368.84,368.84,0,0,0-13.63,78.82c-1.2,18.19-1.85,37-.58,55.59-11.78,13.27-27.69,31.62-29.13,32.7,1.82-13.52,6.83-29.71,11.93-43.14,4.8-12.08-11.54-18-22.14-11-5.49,3.48-8.23,13.52-10.87,19-3.3,6.88-6.52,13.79-9.48,20.82-5.69,13.58-11,26.24-19.91,38.26-2.83,3.82-7.26,6.27-10.91,1.63-8.53-10.86-2.82-28.28.82-40,4.7-15.14,12.56-29.27,24.62-39.76a68.76,68.76,0,0,1,14.28-9.76c6.11-3,16.1-1,18.39-9.2,1.65-6-2.83-11.52-8.55-12.8-8.83-2-19.56,3-26.13,8.44-13.1,10.93-24.44,22-33.27,36.62-6.32,10.45-10.69,24.68-13,36.65a47.27,47.27,0,0,0,.15,17.37c-6.23,17.67-13.8,43-24.24,38.53-12.81-5.52-4.61-66.72-.12-79.92,9.38-27.56,10.46-27,3.17-29.38-5.66-1.81-11.2-1.12-15.38,4.23-12.07,15.46-15.45,59.07-12.77,80,1.91,15.12,10.72,22.79,18.88,27.94,3.13,2,9.56,4.19,13.19,2,8.93-5.46,13.81-25,18.55-38.26,3.29,10.8,10.45,20.21,21.71,22.28,4.61.84,8.35-1,12.1-4.17,8.23-7,12.68-18,17.46-27.4,5.21-10,11.24-20.54,15.12-31.36l-2,20.93c-1,7.83-.07,19-3.92,25.81-4.13,7-11,13.65-15.8,19.94A234.13,234.13,0,0,0,554,1008.93c-5.78,12.35-12,31.21-2.6,43.58,10.57,13.9,28.13,20.21,43.91,8.33,9-6.81,15.2-18.35,13.52-40.23-.63-8.15,8-90.33,13.19-97.42a136.74,136.74,0,0,1,9.75-11C638.21,904.39,645,897,652,889.37a193.86,193.86,0,0,0,8.43,43.22c1.66,5,6.65,10.68,12.53,8.88,8.75-2.7,11.82-18.54,14.66-25.84,4-10.33,8.28-20.86,12.71-30.9,3.7-8.6,7.57-17.12,11.82-25.48,2.45-4.84,5.52-9.41,8.35-14,1.34-2.17,3.81-5.17,4.27-7.69-.82,4.48-1.56,9.18-2.66,13.65a327.59,327.59,0,0,0-7.3,43.08c-1.25,11.43-1.46,23.87,2.06,35.06C720,939.51,733.11,940.5,741,936c14.66-8.43,21.49-24.81,29-39.43-.12,1.78-.24,3.55-.37,5.33-.63,9.71-1.06,19.55,4.78,28,5.69,8.27,17,6.46,24.55,1.61,8.38-5.39,13.67-15,18.55-23.13,7.8-13.09,12.58-22.11,16.77-30.8A196,196,0,0,0,839,924.14c1.21,5.15,5.71,11.22,11.72,9.91,8.94-1.93,13.34-17.45,16.81-24.49,4.9-10,10-20.08,15.27-29.72,4.44-8.24,9-16.4,13.94-24.37,2.87-4.61,6.32-8.89,9.53-13.27,1.51-2,4.22-4.82,4.89-7.29-1.18,4.4-2.31,9-3.79,13.36a328.29,328.29,0,0,0-10.93,42.33c-2.22,11.28-5.26,23.44-2.69,34.91,2.33,10.39,15.27,12.5,23.55,8.64s15-10.23,20.74-17.46a31.19,31.19,0,0,0,11.63,17.51c19.89,15,40.51,1.12,52.56-16.16,9.08-13,14.11-31.83,20.56-46.16,0,0,6.72-4.54,7.8-5.25a18.41,18.41,0,0,1,2.44-1.32,218,218,0,0,0-5.5,40.68,71.7,71.7,0,0,0,2.13,21.36c2.31,8.17,9,11.47,14.55,8.1s9.6-10.9,13.63-17.53c4.5-7.41,8.91-15,12.83-23.2,2.69-5.59,5.24-11.35,7.91-17l4.23-8.81c1-2.07,3.11-5.14,3.84-7.62-3,13.35-7.91,31.68-2.38,43.81,3.2,6.41,9.51,9.93,15,7.8,10.61-3.69,32.64-46.81,39.39-62.38,2,3.91,4.2,7.54,6.25,10.72,2.6,4.05,5,9,8.41,14.37,0,0-4,3.61-5.73,5-13.81,11.7-31,23.56-35.75,42.16-3.87,15.16,5.5,27.83,19.88,28.11C1158.14,951.47,1186.73,931.33,1186.44,903.14Zm-505.53-116c3.63-28.11,10.52-64.23,22.39-87.61,3-5.93,6.8-9.78,11.32-10.55,17.45-3,12,41.93,11.4,50-4.09,54.68-38.91,95.54-48.89,106.71A486.64,486.64,0,0,1,680.91,787.17Zm-90,241.76c-2.47,10.17-7.41,18.22-20.65,19.23-10.8.84-15.78-14.83-15.29-23.26.88-15.28,9.26-29.06,17.77-41.31,4.63-6.63,9.58-13,14.62-19.36,2.42-3.05,4.89-6.11,7.32-9.15,1.34-1.67,5.63-7.11,6.27-7.87C599,971.89,596.77,1004.87,591,1028.93Zm248.7-209.19c-2.53,16.74-4.66,34-5.21,51.33h0l-6.17,11.07c-3.71,7.08-19.77,28-30.17,23-1.69-.81-2.15-3-2.33-4.83-2.61-25.86,3.32-53.16,7.09-78.64.2-1.3.39-2.6.61-3.89.84-.33,1.68-.67,2.52-1a1.55,1.55,0,0,1,1.13-.19c.53,0,21.59-10.59,31-15.53,1.78-.92,3.57-1.86,5.34-2.74Q841.28,809,839.65,819.74Zm145.43,11.44a.29.29,0,0,1-.2.35Zm5.68,80.4c-4.15,6.9-9.41,13.56-16.76,16.81-2.51,1.11-5.42,1.77-7.92.69-3.4-1.48-4.76-5.56-5.26-9.25-1.06-7.94.27-15.92,1.25-23.78.92-7.27,2.51-14.71,6.12-21.16,1.18-2.08,2.84-4.63,2-7.13,2.9,5.51,8.88,8.89,14.77,10.25,6.16,1.39,12.58.89,18.87.14A105.72,105.72,0,0,1,990.76,911.58ZM1007,869.66a23.42,23.42,0,0,1-1.92,5.24c-4.74,2.4-14.18,2.1-18.89-1.09-3.64-2.48-4.12-6.76-4.64-10.77-1.74-13.68,1.19-32.49,10-43.47,2.66-3.27,6.73-6.21,10.48-2.61,6,5.77,5.6,15.85,5.94,23.52C1008.37,849.65,1009.06,860.68,1007,869.66ZM1142.64,933a20.23,20.23,0,0,1-7.67,1.33c-7-.17-13.8-4-14.5-11.53-.8-8.42,6.16-17,11-23.09A97.75,97.75,0,0,1,1155,879.23c-.58.11.51-.32,0,0,1.32-.25,4.38,7.47,4.67,8.27C1165.62,903.46,1159.71,926.49,1142.64,933Z"/><path class="cls-2" d="M922.44,804.11c-6.34-2.57-12.57-5.51-18.91-8.11-1.43-.57-2.84-1.14-4.29-1.68-1.26-.47-2.54-.93-3.81-1.36-8.08-2.71-16.56-4.4-25.35-3.56.4-2,.79-4,1.22-6,8.45.85,16.53,4.28,24.33,7.43,1.54.61,3,1.26,4.57,1.92s2.79,1.23,4.18,1.89A192.38,192.38,0,0,1,922.44,804.11Z"/><circle class="cls-2" cx="518.97" cy="830.84" r="14.12"/><path class="cls-2" d="M1259.59,919c-7.55,10-15.11,20.34-26,26.74-10.58,6.18-25,4.66-34-3.58-11.09-10.23-11.91-27-9.8-41.13a165.83,165.83,0,0,1,6.66-28.45q1.55-4.59,3.38-9.07c5-12.21,11.82-24.08,22.21-32s24.9-11.31,36.66-5.78a18.3,18.3,0,0,1,7.94,6.58c2.45,3.92,2.73,9,1.61,13.48a38,38,0,0,1-6.21,12.41c-10.33,14.71-31.28,28.56-47.37,35.16,0,0-.9.37-1.53,3.24-2.79,13-8.32,30.56,2.17,37.14,7.83,4.9,13.92.91,18.51-2.7a110.46,110.46,0,0,0,10-9.18c9.53-9.65,17.83-20.46,25.75-31.48,4-5.53,7.86-11.12,11.78-16.68,1.82-2.57,3.65-5.13,5.37-7.75,1.47-2.23,3.4-5.25,6.09-6.06C1296.05,858.86,1268,907.88,1259.59,919Zm-44.77-31c15-3.07,29.07-13,38.1-25.25,3.73-5.06,7.5-12.47,4.16-18.6-3.18-5.85-11.12-7.6-17-5.28-6.28,2.46-10.43,8.75-13.14,14.62-3.89,8.46-5.91,17.62-9.32,26.24-.21.52-.39,1-.58,1.57S1215.22,887.94,1214.82,888Z"/><text class="cls-3" transform="translate(688.35 1112.16)">_<tspan class="cls-4" x="51.55" y="29.88">RE</tspan><tspan class="cls-5" x="145.69" y="29.88">C</tspan><tspan class="cls-6" x="193.92" y="29.88">O</tspan><tspan class="cls-4" x="247.08" y="29.88">VE</tspan><tspan class="cls-7" x="342.67" y="29.88">R</tspan><tspan class="cls-8" x="389.83" y="29.88">Y</tspan><tspan class="cls-9" x="447.61" y="0">_</tspan></text><path class="cls-2" d="M1284.41,748.57h302.86a0,0,0,0,1,0,0v4.13a13.52,13.52,0,0,1-13.52,13.52H1297.93a13.52,13.52,0,0,1-13.52-13.52v-4.13A0,0,0,0,1,1284.41,748.57Z"/><path class="cls-10" d="M1298.1,668.18h275.49a13,13,0,0,1,13,13v4a0,0,0,0,1,0,0H1285.15a0,0,0,0,1,0,0v-4A13,13,0,0,1,1298.1,668.18Z" transform="translate(2871.68 1353.26) rotate(180)"/><path class="cls-2" d="M1520.45,807.74h-171.1a27.08,27.08,0,0,1-25.11-16.92l-5.65-14h232.29l-5.11,13.43A27.1,27.1,0,0,1,1520.45,807.74Z"/><rect class="cls-11" x="1335.13" y="561.12" width="152.17" height="97.77"/><rect class="cls-2" x="1494.65" y="561.12" width="38.23" height="97.77"/><path class="cls-2" d="M1550.52,550.83H1318.23c0-24.77,117.61-51.46,117.61-51.46s114.68,26.69,114.68,51.46Z"/><rect class="cls-12" x="1300.58" y="692.7" width="110.26" height="44.84"/><rect class="cls-13" x="1422.61" y="692.7" width="26.46" height="44.84"/><rect class="cls-12" x="1458.63" y="692.7" width="78.66" height="44.84"/><rect class="cls-2" x="1300.1" y="692.7" width="273.2" height="44.84"/><path class="cls-11" d="M1274.55,651.71a127.51,127.51,0,0,1-17.45,4.2c-5.83,1-11.67,1.78-17.51,2.32a137.35,137.35,0,0,1-17.57.5c-5.87-.2-11.74-.52-17.6-.58l-17.6-.24-17.59-.43c-11.74-.36-23.47-.7-35.22-1.27l0-1.2c11.68-1.33,23.37-2.42,35-3.53l17.54-1.55,17.54-1.37c5.85-.43,11.69-1.13,17.53-1.7a137.41,137.41,0,0,1,17.57-.62q8.79.24,17.62,1.19a127.64,127.64,0,0,1,17.68,3.08Z"/><path class="cls-11" d="M1286.64,584a81.6,81.6,0,0,1-14.3-.5,136.16,136.16,0,0,1-13.76-2.3,85.31,85.31,0,0,1-13.24-4c-4.3-1.7-8.58-3.51-12.92-5.08l-13-4.76-13-4.93c-8.63-3.36-17.26-6.7-25.82-10.26L1181,551c9.11,1.74,18.15,3.71,27.2,5.67l13.54,3,13.49,3.21c4.49,1.09,9,1.94,13.58,2.89a86,86,0,0,1,13.27,3.93,132.44,132.44,0,0,1,12.75,5.67,81.6,81.6,0,0,1,12.21,7.47Z"/><path class="cls-11" d="M1275.48,616.91A185.62,185.62,0,0,1,1254,619q-10.71.46-21.37.21a206.84,206.84,0,0,1-21.24-1.61c-7-.92-14.09-1.92-21.15-2.69L1169,612.55,1147.85,610c-14.11-1.76-28.21-3.51-42.31-5.49l.09-1.19c14.23.08,28.44.4,42.66.7l21.31.56,21.3.74c7.1.26,14.22.3,21.33.41a203.7,203.7,0,0,1,21.24,1.49q10.59,1.29,21.12,3.3a183.44,183.44,0,0,1,21,5.18Z"/><polygon class="cls-2" points="1530.57 900.82 1524.05 817.67 1349.84 817.67 1331.61 1042.26 1530.57 900.82"/><polygon class="cls-11" points="1548.48 1129.21 1531.58 913.64 1330.45 1056.62 1310.86 1298.14 1548.48 1129.21"/><path class="cls-2" d="M1292.93,1519a797.24,797.24,0,0,0,263.67-286.26l-7.12-90.73L1309.69,1312.5Z"/><circle class="cls-14" cx="858.8" cy="858.8" r="798.93"/></g></g></svg>