<svg xmlns="http://www.w3.org/2000/svg" viewBox="0 0 1156.35 673.82"><defs><style>.cls-1{font-size:53.7px;font-family:Gotham-Light, Gotham;font-weight:300;letter-spacing:0.36em;}.cls-1,.cls-8{fill:#444a60;}.cls-2{letter-spacing:0.18em;}.cls-3{letter-spacing:0.16em;}.cls-4{letter-spacing:0.14em;}.cls-5{letter-spacing:0.16em;}.cls-6{letter-spacing:0.36em;}.cls-7{letter-spacing:0.18em;}</style></defs><g id="Layer_2" data-name="Layer 2"><g id="Layer_1-2" data-name="Layer 1"><text class="cls-1" transform="translate(493.6 635.13)">_<tspan class="cls-2" x="51.55" y="29.88">RE</tspan><tspan class="cls-3" x="145.69" y="29.88">C</tspan><tspan class="cls-4" x="193.92" y="29.88">O</tspan><tspan class="cls-2" x="247.08" y="29.88">VE</tspan><tspan class="cls-5" x="342.67" y="29.88">R</tspan><tspan class="cls-6" x="389.83" y="29.88">Y</tspan><tspan class="cls-7" x="447.61" y="0">_</tspan></text><path class="cls-8" d="M199.66,158.81l-.18-1.77c2.5-.24,4.58-.36,6.56-.37l.08,3.51c-2.05.07-4.18.2-6.3.39Z"/><path class="cls-8" d="M528.67,87.12A118.75,118.75,0,0,0,522.6,50.2c-10.1-30.13-30.39-48.36-55.68-50C438.19-1.7,396,10.63,358.25,80.21c-34.48,63.61-41,134.74-47.32,203.55q-1.15,12.76-2.38,25.54c-.48.78-3,2.68-14.08,7.09l-1.25.52c-46.24,19.25-103.85,7.95-137-26.9-27.35-28.76-31.28-69.57-9.52-99.26a75.21,75.21,0,0,1,52.84-30l-.18-1.76-.16-1.75c-37.27,3.53-68.14,25.54-78.63,56.09-5.72,16.64-5.33,35.44,1.12,52.95A102.57,102.57,0,0,0,182.09,327c41.19,15.41,89.16,12.59,126-7.24-2.73,40.73-10.83,138.36-13.55,167.63l-.12,1.34,1.27.47c1.58.58,4.21,2.76,6.52,4.68,3.54,2.93,6.28,5.19,8.47,5.26a3,3,0,0,0,1.4-.3c1.2-.6,1.75-1.91,1.67-3.87-1.08-22.39,9.11-144.85,12.26-181.84a7.09,7.09,0,0,1,.61-2.86c.63-1.06,2.05-1.66,3.71-2.3a381.91,381.91,0,0,0,124.31-78.29C488.48,197.84,528.77,147.25,528.67,87.12Zm-50.8,87.32c-.45.75-.91,1.47-1.37,2.22-28,44.64-69.08,82-118.68,108.07-1.9,1-3.42,1.8-4.84,2.58-3.87,2.09-7,3.77-14.8,7.41-1.54.71-3,1.46-4.58,2.23-2.21,1.1-4.48,2.24-6.9,3.26,10.09-86.85,23.57-147,40.06-178.92l2.06-4c12-23.33,24.5-47.47,43.41-65.73,12.92-12.46,30.7-19.82,46.65-19.36.35,0,.7,0,1.06,0a40.16,40.16,0,0,1,29.4,14.42c12.42,14.7,16.67,31.74,16.18,48.91C504.67,125.15,489.73,155.13,477.87,174.44Z"/><path class="cls-8" d="M910,514.09c-80.74-22.84-146.88-32.82-208.13-31.41-74.62,1.72-145.15,24.65-213.35,46.84-2.21.73-7.3,2.68-14.37,5.37-18.3,7-66.71,25.55-73.31,23.67C328,486.3,245.19,442.37,161.45,431.53c-34.43-4.45-67-2.81-94.2,4.74C37.73,444.45,2.46,466.73.12,502.52c-2.36,35.94,30.37,63.67,50.1,77,44,29.77,94.17,45.33,152.14,47A416.76,416.76,0,0,0,267,623.08c74.9-9.56,151.41-36.89,218.9-61L503,556q9.83-3.48,19.61-7,14.64-5.24,29.28-10.44c64.61-22.69,122.51-34.85,177-37.16a608.36,608.36,0,0,1,177.18,18.89,1471.68,1471.68,0,0,1,165.68,54.1l1-2.46,1-2.46A1719.94,1719.94,0,0,0,910,514.09ZM348,576q-19.28,5.43-41,10.51A560.61,560.61,0,0,1,214.36,600a354.18,354.18,0,0,1-90.53-5.81C95,588.48,70.18,577,50.18,560c-12.56-10.68-19.54-22.18-20.73-34.22s3.62-24.44,14.28-37a103.12,103.12,0,0,1,65.73-36.33,210,210,0,0,1,36-2,246.92,246.92,0,0,1,48.39,6.4,367.83,367.83,0,0,1,86.74,32.29c28.18,14.62,52.72,30.75,72.92,47.91,7.29,6.18,13.59,11.73,18.72,16.47,4.14,3.83,8.08,7.59,11.77,11.27Q367.32,570.55,348,576Z"/><path class="cls-8" d="M1049.69,398.11c-.07-8.93-2.23-17.63-5.37-26-3.38-9-7.88-17.67-12.2-25.95-5.95-11.49-22.89-31-11.83-44,3.64-4.27.11-9.28-4.1-11.36-4.93-2.46-10.3-.55-14.16,3-14.11,12.89-9.37,32.68-1.57,48.74-10,19.81-33.28,68.91-37.54,53.06-.79-3,.41-14.12,2.43-22.89,2.89-12.58,9.4-38.1,12.83-50,2.49-8.6,2.38-17.34-4.12-18.11-12-1.42-19.44,19.51-25,34.26-3.91,10.39-8.44,20.57-13.13,30.2-5.56,11.39-10.87,24.23-18.49,32.35-2.17,2.32-4.78,2.37-5.38-2-1-6.7,1.38-14.88,2.77-21.44,1.52-7.11,3.24-14.14,5.06-21.1C924.54,339.32,930.2,323,935.63,306c1.42-4.46.9-6.69-1.68-8.84a10.27,10.27,0,0,0-6.58-2.72c-10.44.14-17.65,20-22,33.36-3,9.06-5.73,18.44-8,28-3.81,3-7.64,5.87-11.18,7.53.82-.38,1.94-14.74,2-15.94.1-3.58.12-7.18,0-10.77-.38-9-.94-17.65-7.27-24.62-6.58-7.23-18.81-12.76-28.57-9.81-8.86,2.69-14.45,12.44-17.57,20.58a37.37,37.37,0,0,0-2.48,10c-.24,2.84.12,6.35-1.71,8.75-1.07,1.4-5,2.82-6.61,4.38-7.83,5.83-13.52,15-17.06,24-2.21,5.6-3.45,11.62-4.9,17.46a53.38,53.38,0,0,0-1.47,19.72c-2,2.17-3.94,4.32-5.91,6.36s-4.27,4.95-7.3,4.52c-3.6-.51-4.67-13.64-4.92-17.13-1.54-21.51,7.1-42.29,12.63-63.18,2.08-7.82,3-17.66-3.75-22.45C786.6,312,780,312.61,775,315.4s-8.42,7.3-11.67,11.78c-12.38,17.05-29.78,48.41-30.32,49.63q-5.17,10.33-10.38,20.69c.43-.85-.38-4.09-.48-5-.18-2-.34-4.09-.44-6.13-.21-4.1-.25-8.22-.08-12.33a89.59,89.59,0,0,1,4.19-24.14,127.33,127.33,0,0,1,8.08-12.53c11.69-14.69,23.12-30.09,32.84-46.36-1.43-.57-2.85-1.14-4.3-1.68A213.1,213.1,0,0,1,726.32,334a486.73,486.73,0,0,1,7-49.61c.39-2,.79-4,1.22-6,.16-.79.34-1.57.51-2.36,6-27.69,16-63.11,29.76-85.39,3.5-5.65,7.59-9.15,12.18-9.55,17.63-1.47,8.39,42.8,7.1,50.79-3.46,21.41-11.51,40.27-20.65,55.86,1.39.61,2.79,1.23,4.18,1.89,10-16.91,18.2-34.74,23-53.6,4-15.88,7.35-33.62,4.77-49.94-2.69-17-17.82-23.44-32.53-13.55-20.89,14-31.26,42.94-39.69,64.88a353.31,353.31,0,0,0-13.92,44.84,131.92,131.92,0,0,0-19.06,7.55c-6.85,3.37-13.53,6.58-20.1,9.66a2.82,2.82,0,0,1-.83.79,2.12,2.12,0,0,0-.2.12c.06-.23.1-.44.14-.67,2.64-12.85,5.62-25.62,8.74-38.36,1.06-4.21,2.08-8.42,3.14-12.61,3.25-13.13,6.72-26.12,11.73-38.81a173.51,173.51,0,0,1,9.42-21c4.36-7.84,15.94-22.5-1.44-21.8-13.88.57-22.18,11.67-26.27,23.87a848.43,848.43,0,0,0-30.3,119.65A73.22,73.22,0,0,1,634,312.62a40.69,40.69,0,0,1-15.81-.95c-5-1.33-6.49,1.06-1.16,3.41a51.81,51.81,0,0,0,25.74,3.74q-3.59,20.88-6.33,41.9c-1,8-1.93,16.1-2.62,24.19-5.56,9.81-11.61,19.74-17.52,28.89-2.25,3.49-6.34,8.51-11.35,8.31a3.8,3.8,0,0,1-3.22-2.81c-.87-2.68-.52-6.55-.59-9.36-.1-3.52-.08-7.05,0-10.56.2-6.79.75-13.59,1.52-20.35,1.56-13.59,4-27.06,6.4-40.54,1.4-8,1.5-17.86-5.65-22-4.86-2.84-11.43-1.62-16.08,1.59s-7.79,8-10.64,12.72c-10.78,17.89-25.27,50.11-26,52q-4.29,10.78-8.62,21.58c.36-.91-.73-4.05-.9-5-.35-2-.68-4.05-1-6.07A120.56,120.56,0,0,1,539.15,381a89,89,0,0,1,2.11-24.41,129.12,129.12,0,0,1,7-13.18c21.5-32.28,41.56-67.6,47.87-105.81,2.67-16.18,4.46-34.12.51-50.18-4.12-16.69-19.73-21.83-33.56-10.74-19.63,15.75-27.49,45.47-34,68A368.84,368.84,0,0,0,515.4,323.5c-1.2,18.19-1.85,37-.59,55.59-11.77,13.27-27.68,31.62-29.12,32.71,1.82-13.53,6.82-29.72,11.93-43.15,4.8-12.08-11.54-18-22.14-11-5.49,3.48-8.24,13.52-10.87,19-3.3,6.88-6.52,13.79-9.48,20.83-5.69,13.57-11,26.23-19.91,38.25-2.83,3.82-7.26,6.27-10.91,1.63-8.53-10.86-2.82-28.28.82-40,4.69-15.14,12.55-29.27,24.62-39.76A68.76,68.76,0,0,1,464,347.83c6.11-3,16.1-1,18.39-9.2,1.65-6-2.83-11.52-8.55-12.8-8.83-2-19.57,3-26.13,8.45-13.1,10.92-24.44,22-33.27,36.61-6.32,10.45-10.69,24.68-13,36.65a47.05,47.05,0,0,0,.15,17.37c-6.23,17.67-13.8,43-24.25,38.53-12.8-5.52-4.6-66.72-.11-79.92,9.38-27.56,10.46-27,3.16-29.38-5.65-1.81-11.19-1.12-15.38,4.24-12.06,15.45-15.44,59.06-12.76,80,1.91,15.12,10.71,22.79,18.88,27.94,3.12,2,9.56,4.19,13.19,2,8.93-5.46,13.81-25,18.55-38.25,3.29,10.79,10.45,20.2,21.71,22.27,4.6.84,8.35-1,12.09-4.17,8.24-7,12.69-18,17.46-27.4,5.22-10,11.25-20.54,15.12-31.36l-2,20.94c-1,7.83-.07,18.94-3.93,25.8-4.12,7-11,13.66-15.79,19.94a233.71,233.71,0,0,0-30.29,47.81c-5.78,12.35-12,31.21-2.6,43.58,10.56,13.9,28.13,20.22,43.9,8.33,9-6.8,15.21-18.35,13.53-40.22-.63-8.16,8-90.34,13.19-97.43a136.74,136.74,0,0,1,9.75-11c6.42-7.78,13.19-15.14,20.17-22.8a194.05,194.05,0,0,0,8.43,43.23c1.66,5,6.65,10.68,12.53,8.87,8.75-2.7,11.82-18.54,14.66-25.84,4-10.33,8.28-20.86,12.7-30.9,3.71-8.6,7.58-17.12,11.83-25.48,2.45-4.83,5.51-9.41,8.35-14,1.33-2.17,3.8-5.17,4.26-7.68-.81,4.47-1.55,9.17-2.65,13.64a327.46,327.46,0,0,0-7.3,43.09c-1.25,11.42-1.47,23.86,2.06,35.05,3.2,10.18,16.28,11.17,24.21,6.62,14.65-8.43,21.48-24.81,29-39.43-.12,1.78-.25,3.55-.37,5.33-.63,9.71-1.06,19.55,4.77,28,5.7,8.27,17,6.46,24.56,1.61,8.38-5.39,13.67-15,18.55-23.13,7.79-13.08,12.58-22.11,16.76-30.8a196.49,196.49,0,0,0,4.71,46.63c1.22,5.15,5.72,11.22,11.73,9.91,8.93-1.93,13.34-17.45,16.81-24.49,4.89-9.95,10-20.08,15.26-29.71,4.44-8.25,9-16.41,14-24.38,2.87-4.61,6.32-8.89,9.53-13.26,1.51-2,4.22-4.83,4.89-7.3-1.18,4.4-2.31,9-3.79,13.37a329.4,329.4,0,0,0-10.94,42.32c-2.21,11.28-5.25,23.44-2.68,34.91,2.33,10.39,15.26,12.5,23.55,8.64s15-10.23,20.74-17.46a31.14,31.14,0,0,0,11.63,17.51c19.89,15,40.51,1.12,52.56-16.16,9.08-13,14.11-31.83,20.56-46.16,0,0,6.72-4.54,7.8-5.25a18.93,18.93,0,0,1,2.43-1.32,219.67,219.67,0,0,0-5.5,40.68,71.66,71.66,0,0,0,2.14,21.36c2.31,8.17,9,11.47,14.55,8.1s9.6-10.9,13.62-17.53c4.51-7.41,8.91-15,12.84-23.2,2.69-5.59,5.24-11.35,7.91-17q2.11-4.41,4.22-8.81c1-2.07,3.12-5.14,3.84-7.62-3,13.35-7.9,31.68-2.37,43.81,3.2,6.41,9.51,9.93,15,7.8,10.61-3.69,32.64-46.81,39.39-62.38,2,3.91,4.2,7.54,6.24,10.72,2.61,4.05,5,9,8.42,14.37,0,0-4,3.61-5.73,5-13.81,11.7-31,23.56-35.75,42.16-3.87,15.17,5.5,27.83,19.88,28.11C1021.39,446.44,1050,426.31,1049.69,398.11Zm-505.54-116c3.64-28.11,10.53-64.23,22.4-87.61,3-5.93,6.8-9.78,11.32-10.55,17.45-2.95,12,41.94,11.4,50-4.09,54.67-38.91,95.53-48.89,106.7A485.66,485.66,0,0,1,544.15,282.14ZM454.2,523.9c-2.47,10.17-7.41,18.22-20.65,19.23-10.8.84-15.78-14.83-15.29-23.25.88-15.29,9.26-29.07,17.77-41.32,4.62-6.63,9.58-13,14.62-19.36,2.41-3.05,4.89-6.11,7.32-9.15,1.34-1.67,5.63-7.11,6.27-7.87C462.2,466.86,460,499.84,454.2,523.9ZM702.9,314.71c-2.54,16.74-4.66,34-5.21,51.33v0l-6.17,11.07c-3.72,7.07-19.77,28-30.17,23-1.69-.81-2.16-3-2.33-4.83-2.61-25.86,3.32-53.16,7.09-78.64.2-1.3.39-2.6.61-3.89.84-.32,1.68-.67,2.52-1a1.55,1.55,0,0,1,1.13-.19c.53,0,21.59-10.59,31-15.53,1.78-.92,3.57-1.85,5.34-2.74Q704.53,304,702.9,314.71Zm145.43,11.44a.29.29,0,0,1-.2.35ZM854,406.56c-4.15,6.89-9.41,13.55-16.77,16.8-2.5,1.11-5.42,1.77-7.91.69-3.4-1.48-4.77-5.56-5.26-9.25-1.06-7.94.27-15.92,1.25-23.78.92-7.27,2.51-14.71,6.12-21.16,1.18-2.08,2.84-4.63,2-7.13,2.9,5.51,8.87,8.9,14.77,10.25,6.16,1.4,12.58.89,18.87.14A106.11,106.11,0,0,1,854,406.56Zm16.22-41.93a24,24,0,0,1-1.92,5.24c-4.75,2.4-14.18,2.1-18.9-1.09-3.63-2.47-4.11-6.76-4.63-10.77-1.74-13.68,1.19-32.49,10-43.46,2.66-3.28,6.73-6.22,10.48-2.62,6,5.77,5.6,15.85,5.94,23.52C871.62,344.63,872.31,355.65,870.23,364.63ZM1005.89,428a20.27,20.27,0,0,1-7.67,1.33c-7-.16-13.8-4-14.5-11.52-.8-8.43,6.16-17,11-23.1a97.56,97.56,0,0,1,23.55-20.51c-.58.11.5-.32,0,0,1.31-.25,4.38,7.47,4.67,8.27C1028.86,398.43,1023,421.46,1005.89,428Z"/><path class="cls-8" d="M785.69,299.08c-6.34-2.57-12.58-5.51-18.91-8.11-1.43-.57-2.85-1.14-4.3-1.68-1.25-.47-2.53-.93-3.81-1.36-8.08-2.7-16.56-4.4-25.34-3.56.39-2,.79-4,1.22-6,8.45.85,16.53,4.28,24.33,7.43,1.53.61,3,1.26,4.57,1.92s2.79,1.23,4.18,1.89A193.62,193.62,0,0,1,785.69,299.08Z"/><circle class="cls-8" cx="382.22" cy="325.82" r="14.12"/><path class="cls-8" d="M1122.84,414c-7.55,10-15.11,20.34-26,26.74-10.58,6.19-25,4.66-34-3.58-11.09-10.23-11.91-27-9.8-41.13a165.83,165.83,0,0,1,6.66-28.45q1.55-4.59,3.37-9.07c5-12.21,11.83-24.08,22.22-32s24.9-11.3,36.66-5.78a18.36,18.36,0,0,1,7.94,6.58c2.44,3.93,2.73,9,1.61,13.49a38.19,38.19,0,0,1-6.21,12.41c-10.33,14.7-31.29,28.55-47.37,35.15,0,0-.9.37-1.53,3.25-2.79,13-8.32,30.55,2.17,37.13,7.82,4.9,13.92.92,18.51-2.7a111.8,111.8,0,0,0,10-9.18c9.53-9.65,17.83-20.46,25.75-31.48,4-5.53,7.86-11.12,11.78-16.68,1.81-2.56,3.65-5.13,5.37-7.75,1.47-2.23,3.4-5.25,6.09-6.06C1159.3,353.83,1131.25,402.85,1122.84,414Zm-44.78-31c15-3.07,29.08-13,38.11-25.25,3.73-5.06,7.5-12.47,4.16-18.59-3.19-5.85-11.13-7.61-17-5.29-6.27,2.46-10.42,8.75-13.13,14.62-3.89,8.46-5.91,17.62-9.32,26.24-.21.52-.39,1-.58,1.57S1078.47,382.91,1078.06,383Z"/></g></g></svg>